<?xml version="1.0" encoding="UTF-8"?>
<!DOCTYPE svg PUBLIC "-//W3C//DTD SVG 1.1//EN" "http://www.w3.org/Graphics/SVG/1.1/DTD/svg11.dtd">
<!-- Creator: CorelDRAW 2020 (64-Bit Not for commercial use) -->
<svg xmlns="http://www.w3.org/2000/svg" xml:space="preserve" width="2.16416in" height="0.376728in" version="1.1" style="shape-rendering:geometricPrecision; text-rendering:geometricPrecision; image-rendering:optimizeQuality; fill-rule:evenodd; clip-rule:evenodd"
viewBox="0 0 13654.12 2376.86"
 xmlns:xlink="http://www.w3.org/1999/xlink"
 xmlns:xodm="http://www.corel.com/coreldraw/odm/2003">
 <defs>
  <style type="text/css">
   <![CDATA[
    .fil3 {fill:#0A2B6A}
    .fil1 {fill:#3182CE}
    .fil0 {fill:#5C946D}
    .fil4 {fill:#0A2B6A;fill-rule:nonzero}
    .fil2 {fill:url(#id0)}
   ]]>
  </style>
  <linearGradient id="id0" gradientUnits="userSpaceOnUse" x1="1754.8" y1="2051.71" x2="1755.9" y2="1578.12">
   <stop offset="0" style="stop-opacity:1; stop-color:#F47F22"/>
   <stop offset="1" style="stop-opacity:1; stop-color:#FFC321"/>
  </linearGradient>
 </defs>
 <g id="Layer_x0020_1">
  <metadata id="CorelCorpID_0Corel-Layer"/>
  <g id="_2186857051440">
   <path class="fil0" d="M2086.19 2270.47l-72.63 -218.44 282.25 0.35 161.8 218.61 -371.42 -0.52zm-80.43 -241.89l-44.31 -133.34 218.29 0.3 98.74 133.39 -272.71 -0.35zm-49.41 -148.61l-29.86 -89.82 175.37 0.2 66.54 89.87 -212.05 -0.25zm-33.46 -100.6l-21.46 -64.61 144.59 0.15 47.87 64.66 -170.99 -0.2zm-42.4 -127.6l-12.64 -38 103.41 0.1 28.14 38.05 -118.91 -0.15zm-14.31 -43l-10.16 -30.55 88.93 0.1 22.6 30.55 -101.37 -0.1zm-11.5 -34.65l-7.3 -21.88 78.24 0 16.27 21.98 -87.21 -0.1z"/>
   <path class="fil1" d="M862.15 2268.71l187.71 -217.94 -311.36 -0.4 -291.84 217.77 415.49 0.57zm207.86 -241.31l114.61 -133.09 -236.62 -0.25 -178.15 132.92 300.16 0.42zm214.24 -248.79l55.52 -64.46 -150.43 -0.17 -86.32 64.41 181.23 0.22zm62.4 -72.43l42 -48.78 -123.28 -0.15 -65.38 48.78 146.65 0.15zm47.27 -54.9l32.74 -38 -102.19 -0.12 -50.95 38.03 120.4 0.1zm36.91 -42.87l26.35 -30.6 -85.25 -0.07 -40.99 30.58 99.88 0.1zm29.88 -34.68l18.51 -21.49 -73.1 0 -28.69 21.39 83.29 0.1z"/>
   <path class="fil1" d="M2623.89 2271.24l-189.15 -218.69 311.01 0.45 293.1 218.84 -414.97 -0.6zm-209.45 -242.13l-115.4 -133.41 236.45 0.32 178.79 133.49 -299.84 -0.4zm-128.64 -148.74l-77.75 -89.89 186.42 0.25 120.42 89.92 -229.09 -0.27zm-149.93 -173.33l-42.2 -48.81 123.5 0.1 65.43 48.88 -146.73 -0.17zm-47.57 -54.99l-32.94 -38.1 102.46 0.1 51.09 38.15 -120.62 -0.15zm-37.23 -43.07l-26.43 -30.55 85.6 0.07 40.99 30.6 -100.15 -0.12zm-29.98 -34.68l-19.1 -22.06 73.05 0 29.68 22.16 -83.63 -0.1z"/>
   <path class="fil0" d="M1392.57 2269.5l72.56 -218.19 -280.86 -0.37 -161.36 218.02 369.66 0.55zm80.33 -241.61l44.29 -133.19 -217.1 -0.25 -98.51 133.09 271.32 0.35zm49.36 -148.44l29.83 -89.74 -174.3 -0.22 -66.4 89.7 210.86 0.27zm33.43 -100.53l21.46 -64.53 -143.7 -0.15 -47.72 64.48 169.95 0.2zm24.09 -72.48l16.22 -48.81 -120.55 -0.15 -36.09 48.78 140.42 0.17zm32.54 -97.89l10.16 -30.58 -88.11 -0.07 -22.63 30.58 100.57 0.07zm11.53 -34.68l7.2 -21.64 -77.67 0 -15.97 21.56 86.44 0.07z"/>
   <path class="fil1" d="M1951.33 2270.27l-51 -218.39 -151.17 -0.17 -155.87 -0.22 -48.21 218.21 190 0.27 216.25 0.3zm-91.16 -390.43l-20.99 -89.79 -72.88 -0.07 -115.23 -0.15 -19.82 89.74 129.24 0.15 99.68 0.12zm-23.5 -100.6l-15.1 -64.58 -50.23 -0.05 -103.61 -0.12 -14.28 64.56 113.69 0.12 69.53 0.07zm-16.94 -72.53l-11.4 -48.81 -33.31 -0.05 -94.76 -0.1 -10.78 48.78 102.39 0.12 47.87 0.05zm-12.87 -55.02l-8.87 -38 -20 -0.02 -87.98 -0.1 -8.4 37.98 93.89 0.1 31.35 0.05zm-18.13 -77.65l-5.09 -21.81 -80.08 0 -4.79 21.73 81.87 0.07 8.1 0z"/>
   <path class="fil2" d="M2198.73 1779.72l-55.96 -64.71 150.5 0.15 86.74 64.76 -181.28 -0.2zm-299.96 -72.93l-16.22 -48.78 121.46 0.12 36.12 48.81 -141.36 -0.15zm-101.94 -98.09l-7.13 -30.53 -9.41 -0.02 -82.42 -0.07 -6.76 30.55 87.21 0.07 18.51 0zm-198.76 42.77l12.62 -38 -102.56 -0.12 -28.12 38 118.06 0.12zm-400.31 227.55l77.25 -89.7 -186.39 -0.2 -120.07 89.57 229.22 0.32zm697.09 149.41l-31.12 -133.31 -104.23 -0.12 -131.62 -0.15 -29.41 133.19 152.41 0.2 143.97 0.2z"/>
   <path class="fil3" d="M1420.64 58.37c0,0 -434.69,1248.53 -1290.26,2007.2l112.37 -58.79c169.28,-150.13 317.62,-317.15 446.79,-488.44l19.72 224.42 4.94 -257.51c84.95,-115.21 161.26,-231.98 229.49,-346.56l22.23 437.15 5.32 -484.02c81.4,-140.37 150.53,-276.59 208.4,-401.63l-2.41 10.68 20.47 715.3 5.09 -776.68c151.72,-337.27 217.84,-581.12 217.84,-581.12zm-1420.64 2318.48l117.27 -268.86 1097.28 -566.98 0 9.84 -986.15 605.01 -46.5 112.45 -181.9 108.55z"/>
   <path class="fil3" d="M2061.87 58.37c0,0 434.69,1248.53 1290.26,2007.2l-112.37 -58.79c-169.28,-150.13 -317.62,-317.15 -446.79,-488.44l-19.72 224.42 -4.94 -257.51c-84.95,-115.21 -161.26,-231.98 -229.49,-346.56l-22.23 437.15 -5.32 -484.02c-81.4,-140.37 -150.53,-276.59 -208.4,-401.63l2.41 10.68 -20.47 715.3 -5.09 -776.68c-151.72,-337.27 -217.84,-581.12 -217.84,-581.12zm1420.64 2318.48l-117.27 -268.86 -1097.28 -566.98 0 9.84 986.15 605.01 46.5 112.45 181.9 108.55z"/>
   <path class="fil3" d="M2077.64 0l-131.87 0 0 28.39c-136.99,0 -274,0 -410.99,0l0 -28.39 -131.87 0 0 1492.08 131.87 -0.07 0 -557.67c136.99,0 274,0 410.99,0l0 557.67 131.87 0.07 0 -1492.08zm-131.87 241.36l0 479.97c-136.99,0 -274,0 -410.99,0l0 -479.97c136.99,0 274,0 410.99,0z"/>
  </g>
  <path class="fil4" d="M4267.26 1048.45l0 -814.51 214.17 0 307.96 418.84c5.89,8.54 15.57,25.81 29.06,51.64 13.66,25.63 28.47,56.39 44.79,92.08 -4.35,-33.78 -7.58,-63.79 -9.66,-90.19 -2.11,-26.38 -3.06,-49.73 -3.06,-70.05l0 -402.32 213.02 0 0 814.51 -213.02 0 -307.76 -420.53c-6.46,-8.54 -16.32,-25.83 -29.81,-51.47 -13.66,-25.81 -28.29,-56.19 -44.24,-91.14 4.37,34.18 7.6,64.38 9.69,90.76 2.09,26.38 3.03,49.75 3.03,70.05l0 402.32 -214.17 0z"/>
  <path id="1" class="fil4" d="M5453.34 744.29l220.8 0 -82.96 -268.84c-2.46,-8.17 -6.09,-21.26 -10.43,-39.49 -4.57,-18.23 -10.26,-41.58 -17.29,-70.05 -4.74,19.92 -9.49,39.1 -14.23,57.33 -4.57,18.03 -9.31,35.5 -14.06,52.21l-81.82 268.84zm-311.19 304.16l281.18 -814.51 278.15 0 281.38 814.51 -220.82 0 -41.21 -145.81 -315.34 0 -42.35 145.81 -221 0z"/>
  <polygon id="2" class="fil4" points="6131.71,1048.45 6131.71,426.47 5949.43,426.47 5949.43,233.94 6536.12,233.94 6536.12,426.47 6353.84,426.47 6353.84,1048.45 "/>
  <polygon id="3" class="fil4" points="6650.23,1048.45 6650.23,233.94 6874.63,233.94 6874.63,1048.45 "/>
  <path id="4" class="fil4" d="M7889.42 642.89c0,58.67 -10.81,113.54 -32.27,164.61 -21.46,51.27 -52.78,97.02 -93.99,137.46 -41.56,40.07 -89.02,70.82 -142.38,92.65 -53.36,21.66 -108.8,32.47 -166.13,32.47 -58.3,0 -114.11,-10.81 -167.27,-32.47 -53.16,-21.83 -99.88,-52.59 -140.32,-92.65 -41.95,-40.44 -73.65,-86.37 -95.48,-138.03 -21.66,-51.44 -32.47,-106.11 -32.47,-164.04 0,-58.27 10.81,-112.94 32.47,-164.41 21.83,-51.27 53.53,-97.2 95.48,-137.64 40.44,-40.07 87.16,-70.82 140.32,-92.65 53.16,-21.66 108.97,-32.47 167.27,-32.47 57.7,0 113.54,10.81 167.07,32.47 53.55,21.83 100.62,52.59 141.44,92.65 40.84,40.04 71.96,85.82 93.79,137.46 21.66,51.44 32.47,106.31 32.47,164.59zm-435.14 239.23c61.5,0 112.37,-22.58 152.64,-67.76 40.24,-45.38 60.38,-102.54 60.38,-171.47 0,-68.16 -20.32,-125.12 -61.15,-170.87 -40.81,-45.56 -91.51,-68.33 -151.87,-68.33 -61.53,0 -112.4,22.78 -152.66,68.16 -40.24,45.36 -60.36,102.51 -60.36,171.04 0,69.7 19.72,127.03 59.42,171.84 39.67,44.98 90.94,67.39 153.61,67.39z"/>
  <path id="5" class="fil4" d="M8028.39 1048.45l0 -814.51 214.17 0 307.96 418.84c5.89,8.54 15.57,25.81 29.06,51.64 13.66,25.63 28.47,56.39 44.79,92.08 -4.35,-33.78 -7.58,-63.79 -9.66,-90.19 -2.11,-26.38 -3.06,-49.73 -3.06,-70.05l0 -402.32 213.02 0 0 814.51 -213.02 0 -307.76 -420.53c-6.46,-8.54 -16.32,-25.83 -29.81,-51.47 -13.66,-25.81 -28.29,-56.19 -44.24,-91.14 4.37,34.18 7.6,64.38 9.69,90.76 2.09,26.38 3.03,49.75 3.03,70.05l0 402.32 -214.17 0z"/>
  <path id="6" class="fil4" d="M9214.47 744.29l220.8 0 -82.96 -268.84c-2.46,-8.17 -6.09,-21.26 -10.43,-39.49 -4.57,-18.23 -10.26,-41.58 -17.29,-70.05 -4.74,19.92 -9.49,39.1 -14.23,57.33 -4.57,18.03 -9.31,35.5 -14.06,52.21l-81.82 268.84zm-311.19 304.16l281.18 -814.51 278.15 0 281.38 814.51 -220.82 0 -41.21 -145.81 -315.34 0 -42.35 145.81 -221 0z"/>
  <polygon id="7" class="fil4" points="9821.62,1048.45 9821.62,233.94 10043.76,233.94 10043.76,858.2 10319.45,858.2 10319.45,1048.45 "/>
  <path id="8" class="fil4" d="M4267.26 2264.71l0 -814.51 169.75 0c126.43,0 215.85,5.89 268.27,17.86 52.59,11.77 98.54,31.7 138.21,59.42 51.64,36.09 90.76,82.22 117.34,138.23 26.78,56.19 40.07,120.37 40.07,192.33 0,71.96 -13.29,135.92 -40.07,192.13 -26.58,56.19 -65.7,102.34 -117.34,138.41 -39.3,27.35 -84.11,46.9 -134.6,58.67 -50.3,11.58 -128.52,17.46 -234.48,17.46l-37.38 0 -169.75 0zm219.88 -182.27l37.21 0c87.14,0 150.92,-17.83 190.99,-53.73 40.07,-35.69 59.99,-92.45 59.99,-170.5 0,-77.85 -19.92,-134.8 -59.99,-171.24 -40.07,-36.27 -103.85,-54.5 -190.99,-54.5l-37.21 0 0 449.97z"/>
  <path id="9" class="fil4" d="M5335.6 1960.55l220.8 0 -82.96 -268.84c-2.46,-8.17 -6.09,-21.26 -10.43,-39.49 -4.57,-18.23 -10.26,-41.58 -17.29,-70.05 -4.74,19.92 -9.49,39.1 -14.23,57.33 -4.57,18.03 -9.31,35.5 -14.06,52.21l-81.82 268.84zm-311.19 304.16l281.18 -814.51 278.15 0 281.38 814.51 -220.82 0 -41.21 -145.81 -315.34 0 -42.35 145.81 -221 0z"/>
  <polygon id="10" class="fil4" points="6013.97,2264.71 6013.97,1642.73 5831.69,1642.73 5831.69,1450.2 6418.38,1450.2 6418.38,1642.73 6236.11,1642.73 6236.11,2264.71 "/>
  <path id="11" class="fil4" d="M6696.16 1960.55l220.8 0 -82.96 -268.84c-2.46,-8.17 -6.09,-21.26 -10.43,-39.49 -4.57,-18.23 -10.26,-41.58 -17.29,-70.05 -4.74,19.92 -9.49,39.1 -14.23,57.33 -4.57,18.03 -9.31,35.5 -14.06,52.21l-81.82 268.84zm-311.19 304.16l281.18 -814.51 278.15 0 281.38 814.51 -220.82 0 -41.21 -145.81 -315.34 0 -42.35 145.81 -221 0z"/>
  <path id="12" class="fil4" d="M7868.33 2264.71l-208.48 0 0 -814.51 232.4 0c90.76,0 154.55,4.37 191.39,13.29 36.64,8.94 67.76,24.12 93.4,45.58 30.01,24.86 52.98,56.01 68.73,93.22 15.77,37.41 23.55,78.79 23.55,124.35 0,48.61 -7.77,91.33 -23.35,128.17 -15.57,37.01 -38.55,67.19 -68.93,90.94 -22.98,17.83 -50.13,30.58 -81.25,38.35 -31.15,7.77 -81.08,11.77 -149.61,11.77l-37.78 0 -40.07 0 0 268.84zm0 -447.68l42.33 0c53.36,0 90.56,-7.4 111.65,-22.03 21.06,-14.63 31.7,-39.49 31.7,-74.82 0,-34.15 -10.43,-58.47 -31.12,-72.9 -20.69,-14.43 -57.53,-21.64 -110.11,-21.64l-44.44 0 0 191.39z"/>
  <polygon id="13" class="fil4" points="8381.88,2264.71 8381.88,1450.2 8604.02,1450.2 8604.02,2074.46 8879.71,2074.46 8879.71,2264.71 "/>
  <path id="14" class="fil4" d="M9203.62 1960.55l220.8 0 -82.96 -268.84c-2.46,-8.17 -6.09,-21.26 -10.43,-39.49 -4.57,-18.23 -10.26,-41.58 -17.29,-70.05 -4.74,19.92 -9.49,39.1 -14.23,57.33 -4.57,18.03 -9.31,35.5 -14.06,52.21l-81.82 268.84zm-311.19 304.16l281.18 -814.51 278.15 0 281.38 814.51 -220.82 0 -41.21 -145.81 -315.34 0 -42.35 145.81 -221 0z"/>
  <polygon id="15" class="fil4" points="9881.98,2264.71 9881.98,1642.73 9699.71,1642.73 9699.71,1450.2 10286.39,1450.2 10286.39,1642.73 10104.12,1642.73 10104.12,2264.71 "/>
  <polygon id="16" class="fil4" points="10394.79,2264.71 10394.79,1450.2 10893.77,1450.2 10893.77,1629.07 10611.24,1629.07 10611.24,1770.3 10877.62,1770.3 10877.62,1944.6 10611.24,1944.6 10611.24,2264.71 "/>
  <path id="17" class="fil4" d="M11850.63 1859.15c0,58.67 -10.81,113.54 -32.27,164.61 -21.46,51.27 -52.78,97.02 -93.99,137.46 -41.56,40.07 -89.02,70.82 -142.38,92.65 -53.36,21.66 -108.8,32.47 -166.13,32.47 -58.3,0 -114.11,-10.81 -167.27,-32.47 -53.16,-21.83 -99.88,-52.59 -140.32,-92.65 -41.95,-40.44 -73.65,-86.37 -95.48,-138.03 -21.66,-51.44 -32.47,-106.11 -32.47,-164.04 0,-58.27 10.81,-112.94 32.47,-164.41 21.83,-51.27 53.53,-97.2 95.48,-137.64 40.44,-40.07 87.16,-70.82 140.32,-92.65 53.16,-21.66 108.97,-32.47 167.27,-32.47 57.7,0 113.54,10.81 167.07,32.47 53.55,21.83 100.62,52.59 141.44,92.65 40.84,40.04 71.96,85.82 93.79,137.46 21.66,51.44 32.47,106.31 32.47,164.59zm-435.14 239.23c61.5,0 112.37,-22.58 152.64,-67.76 40.24,-45.38 60.38,-102.54 60.38,-171.47 0,-68.16 -20.32,-125.12 -61.15,-170.87 -40.81,-45.56 -91.51,-68.33 -151.87,-68.33 -61.53,0 -112.4,22.78 -152.66,68.16 -40.24,45.36 -60.36,102.51 -60.36,171.04 0,69.7 19.72,127.03 59.42,171.84 39.67,44.98 90.94,67.39 153.61,67.39z"/>
  <path id="18" class="fil4" d="M11989.61 2264.71l0 -814.51 232.4 0c90.76,0 154.18,4.2 189.87,12.54 35.69,8.35 66.62,22.41 92.65,41.95 29.24,22.21 51.81,50.7 67.59,85.05 15.75,34.55 23.52,72.53 23.52,114.11 0,63.04 -15.55,114.29 -46.5,153.78 -31.15,39.49 -76.33,65.7 -135.75,78.62l222.14 328.45 -250.63 0 -186.82 -318.96 0 318.96 -208.48 0zm208.48 -429.47l41.01 0c47.84,0 82.79,-8.15 104.8,-24.49 22.03,-16.32 33.04,-41.95 33.04,-76.7 0,-40.81 -10.26,-69.85 -30.75,-87.14 -20.69,-17.29 -55.07,-25.81 -103.65,-25.81l-44.44 0 0 214.14z"/>
  <path id="19" class="fil4" d="M13654.12 2264.71l-207.51 0 -47.64 -352.2c-3.43,-24.86 -6.46,-52.39 -9.31,-82.96 -2.66,-30.38 -5.32,-63.59 -7.4,-99.48 -5.32,34.55 -15.38,77.45 -30.58,129.09 -3.4,10.66 -5.89,18.63 -7.4,23.95l-110.49 381.61 -148.09 0 -110.51 -381.61c-1.52,-5.32 -3.8,-13.29 -6.83,-23.95 -15.57,-51.64 -25.63,-94.34 -30.55,-128.52 -2.11,30.75 -4.77,61.33 -7.8,91.51 -2.86,30.18 -6.46,60.38 -10.43,90.37l-47.84 352.2 -206.39 0 125.69 -814.51 219.68 0 122.83 419.98c0.77,3.03 2.29,7.77 4.55,14.61 11.4,37.41 18.6,69.5 21.66,96.28 1.52,-14.63 4.17,-30.58 8.35,-48.24 4,-17.66 9.69,-38.92 16.72,-63.79l123.97 -418.84 220.23 0 125.12 814.51z"/>
 </g>
</svg>
