<?xml version="1.0" encoding="UTF-8"?>
<svg id="Layer_1" xmlns="http://www.w3.org/2000/svg" version="1.1" viewBox="0 0 450.6 720">
  <!-- Generator: Adobe Illustrator 29.5.1, SVG Export Plug-In . SVG Version: 2.1.0 Build 141)  -->
  <defs>
    <style>
      .st0 {
        fill: #232323;
      }
    </style>
  </defs>
  <g>
    <path class="st0" d="M263.7,186.9c-.8,0-1.6-.7-1.6-1.6h0v-28.4c-.1-.8.6-1.6,1.4-1.7s1.6.6,1.7,1.4v28.7c0,.8-.7,1.4-1.6,1.4Z"/>
    <path class="st0" d="M277.9,172.7h-28.5c-.8-.1-1.4-.8-1.4-1.7.1-.7.6-1.3,1.4-1.4h28.5c.8-.1,1.6.6,1.7,1.4.1.8-.6,1.6-1.4,1.7h-.2Z"/>
  </g>
  <g>
    <path class="st0" d="M208.1,494.3h-12.9c-.8-.1-1.4-.8-1.4-1.7.1-.7.6-1.3,1.4-1.4h12.9c.8-.1,1.6.6,1.7,1.4.1.8-.6,1.6-1.4,1.7h-.2Z"/>
    <path class="st0" d="M208.7,511.8h-23.9c-.8-.1-1.4-.8-1.4-1.7.1-.7.6-1.3,1.4-1.4h23.9c.8.1,1.4.8,1.4,1.7-.1.8-.6,1.4-1.4,1.4Z"/>
    <path class="st0" d="M223.4,511.8h-5.8c-.8.1-1.6-.6-1.7-1.4-.1-.8.6-1.6,1.4-1.7h6c.8.1,1.4.8,1.4,1.7-.1.8-.7,1.4-1.4,1.4Z"/>
    <path class="st0" d="M232.1,527.8h-26.5c-.8-.1-1.4-.8-1.4-1.7.1-.7.6-1.3,1.4-1.4h26.5c.8.1,1.4.8,1.4,1.7-.1.7-.7,1.3-1.4,1.4Z"/>
  </g>
  <g>
    <path class="st0" d="M188.4,217.1h-12.9c-.8-.1-1.4-.8-1.4-1.7.1-.7.6-1.3,1.4-1.4h12.9c.8-.1,1.6.6,1.7,1.4.1.8-.6,1.6-1.4,1.7h-.2Z"/>
    <path class="st0" d="M189,234.7h-23.9c-.8-.1-1.4-.8-1.4-1.7.1-.7.6-1.3,1.4-1.4h23.9c.8-.1,1.6.6,1.7,1.4.1.8-.6,1.6-1.4,1.7h-.2Z"/>
    <path class="st0" d="M203.5,234.7h-5.7c-.8.1-1.6-.6-1.7-1.4-.1-.8.6-1.6,1.4-1.7h6c.8-.1,1.6.6,1.7,1.4.1.8-.6,1.6-1.4,1.7h-.4Z"/>
    <path class="st0" d="M212.3,250.6h-26.5c-.8.1-1.6-.6-1.7-1.4-.1-.8.6-1.6,1.4-1.7h26.7c.8.1,1.4.8,1.4,1.7-.1.8-.7,1.3-1.4,1.4Z"/>
  </g>
  <g>
    <path class="st0" d="M340.9,307.6h-12.9c-.8.1-1.6-.6-1.7-1.4s.6-1.6,1.4-1.7h13.1c.8.1,1.4.8,1.4,1.7-.1.8-.7,1.4-1.4,1.4h0Z"/>
    <path class="st0" d="M351.4,325.1h-23.9c-.8-.1-1.4-.8-1.4-1.7.1-.7.6-1.3,1.4-1.4h23.9c.8.1,1.4.8,1.4,1.7-.1.8-.6,1.4-1.4,1.4Z"/>
    <path class="st0" d="M318.7,325.1h-5.8c-.8-.1-1.4-.8-1.4-1.7.1-.7.6-1.3,1.4-1.4h5.8c.8-.1,1.6.6,1.7,1.4s-.6,1.6-1.4,1.7h-.2Z"/>
    <path class="st0" d="M330.6,341.1h-26.5c-.8-.1-1.4-.8-1.4-1.7.1-.7.6-1.3,1.4-1.4h26.5c.8.1,1.4.8,1.4,1.7-.1.7-.6,1.3-1.4,1.4Z"/>
  </g>
  <g>
    <path class="st0" d="M374.2,530.8l-2.9-1c4.8-14.7,4.8-25.6.1-28.3-3-1.7-7.2.1-10.3,2l-1.6-2.5c6.9-4.1,11.1-3.4,13.5-2,6.1,3.6,6.6,15.1,1.2,31.7Z"/>
    <path class="st0" d="M368.1,546.5l-2.6-1.2c1.2-2.5,2.3-5.2,3.2-7.6l2.8,1.1c-1.1,2.4-2.2,5-3.4,7.7Z"/>
    <path class="st0" d="M347.2,580.7l-2.4-1.8c4.9-6.3,9.4-12.9,13.3-19.8,1-1.6,1.8-3.1,2.6-4.7l2.6,1.4c-.8,1.6-1.8,3.2-2.6,4.8-4.1,7-8.5,13.7-13.6,20.1Z"/>
    <path class="st0" d="M317.8,603c-1.4,0-2.9-.4-4.2-1.1-4.9-2.9-6.1-10.9-3.6-22.8,2.4-11.4,8.2-25.1,15.9-38.6,7.1-12.3,15.3-23.2,23.2-31l2,2.2c-7.7,7.6-15.8,18.3-22.7,30.3-7.7,13.2-13.2,26.7-15.6,37.8-2.3,10.3-1.4,17.6,2.2,19.6,4.7,2.6,13.9-2.8,24.4-14.2l2.2,2c-9.1,10.3-17.6,15.9-23.7,15.9Z"/>
    <path class="st0" d="M343.1,562.5c-6.6,0-12-5.4-12-12s5.4-12,12-12,12,5.4,12,12-5.3,12-12,12ZM343.1,541.5c-4.9,0-9,4.1-9,9s4.1,9,9,9,9-4.1,9-9-4-9-9-9Z"/>
    <path class="st0" d="M339,551.9c-.8,0-1.4-.6-1.4-1.4h0c0-3.1,2.5-5.7,5.7-5.7s1.4.7,1.4,1.4-.7,1.4-1.4,1.4c-1.4,0-2.6,1.2-2.6,2.6-.1,1-.8,1.6-1.6,1.6h0Z"/>
    <path class="st0" d="M355.1,514.2c-4.4,0-8.1-3.6-8.1-8.1s3.6-8.1,8.1-8.1,8.1,3.6,8.1,8.1h0c0,4.4-3.6,8.1-8.1,8.1ZM355.1,501.2c-2.8,0-5,2.3-5,5s2.3,5,5,5,5-2.3,5-5-2.3-5-5-5Z"/>
    <path class="st0" d="M292.5,561.1c-7-3.8-8.5-7.9-8.5-10.6,0-4.8,4.4-9.1,12.9-12.7,7.7-3.2,18.6-5.7,30.7-6.6l.2,3c-11.8,1.1-22.4,3.4-29.8,6.5-7.1,3-11.1,6.5-11.1,10s3.7,6.3,7,7.9l-1.3,2.5Z"/>
    <path class="st0" d="M375.9,567.4l-.6-2.9c15.1-3.2,24.5-8.7,24.5-13.9s-5.8-8.4-15.9-11.7c-10.8-3.5-25.1-5.4-40.5-5.4s-3.6,0-5.3.1v-3c1.7,0,3.5-.1,5.3-.1,15.6,0,30.3,1.9,41.4,5.5,11.7,3.7,18,8.9,18,14.5-.1,7-9.9,13.1-26.9,16.8Z"/>
    <path class="st0" d="M343.3,570.6c-1.8,0-3.6,0-5.4-.1v-3c1.9,0,3.7.1,5.5.1,7.9,0,15.9-.5,23.8-1.7l.5,3c-8.2,1.1-16.2,1.7-24.4,1.7Z"/>
    <path class="st0" d="M327.6,569.8c-2.9-.2-5.8-.6-8.4-1l.5-3c2.6.4,5.4.7,8.3,1l-.4,3Z"/>
    <path class="st0" d="M310.9,567.4c-2-.5-4.1-1-5.9-1.4l.8-2.9c1.8.5,3.7,1,5.8,1.4l-.7,2.9Z"/>
    <path class="st0" d="M299.2,570.4c-4.4,0-8.1-3.6-8.1-8.1s3.6-8.1,8.1-8.1,8.1,3.6,8.1,8.1-1.6,5.5-4,7c-1.3.7-2.8,1.1-4.1,1.1ZM299.2,557.5c-.8,0-1.8.2-2.5.7-2.4,1.4-3.2,4.4-1.8,6.9h0c1.4,2.4,4.4,3.2,6.9,1.8s3.2-4.4,1.8-6.9c-.7-1.2-1.8-2-3.1-2.4-.4-.1-.8-.1-1.2-.1h0Z"/>
    <path class="st0" d="M368.9,603c-4.7,0-10.7-3.2-17.4-9.4-8.7-7.8-17.7-19.6-25.5-33.1-1-1.6-1.8-3.2-2.6-4.8l2.6-1.4c.8,1.6,1.7,3.1,2.6,4.7,7.7,13.2,16.5,24.8,24.9,32.3,7.8,7.1,14.4,10,18.2,7.9,2.9-1.7,3.5-6.4,3.5-10h3c.1,8.1-2.6,11.3-4.9,12.6-1.4.7-2.9,1.1-4.3,1.1Z"/>
    <path class="st0" d="M318.7,546.5c-1.2-2.6-2.4-5.2-3.4-7.8l2.8-1.1c1,2.5,2,5,3.2,7.6l-2.6,1.3Z"/>
    <path class="st0" d="M312.4,530.6c-5.3-16.6-4.8-28,1.2-31.6,6-3.6,16.4,1.9,28.1,14.8l-2.2,2c-10.3-11.4-19.7-17-24.4-14.3s-4.6,13.5.1,28l-2.9,1.1Z"/>
    <path class="st0" d="M349.8,528.8c-1.7-2.3-3.2-4.6-4.9-6.6l2.4-1.8c1.7,2.2,3.4,4.4,5,6.7l-2.5,1.7Z"/>
    <path class="st0" d="M373,576.8c-2.6-10.5-7.9-22.8-14.9-34.9-1-1.6-1.8-3.1-2.8-4.6l2.5-1.6c1,1.6,1.9,3.1,2.8,4.7,7.1,12.3,12.5,24.9,15.1,35.6l-2.8.7Z"/>
    <path class="st0" d="M375.9,590.8c-1.4,0-2.8-.4-4-1.1-3.8-2.2-5.2-7.1-2.9-10.9,2.2-3.8,7.1-5.2,10.9-2.9,3.8,2.2,5.2,7.1,2.9,10.9-1.1,1.8-2.8,3.1-4.8,3.7-.8.2-1.6.2-2.2.2ZM375.9,577.8c-.5,0-.8,0-1.3.1-2.6.7-4.3,3.5-3.6,6.1s3.5,4.3,6.1,3.6,4.3-3.5,3.6-6.1c-.4-1.3-1.2-2.4-2.4-3-.7-.5-1.6-.7-2.4-.7h0Z"/>
  </g>
  <g>
    <path class="st0" d="M218.9,687.1c-22.8,0-41.5-18.6-41.4-41.5,0-22.8,18.6-41.5,41.5-41.4,22.8.1,41.5,18.6,41.4,41.5,0,6-1.3,12-3.8,17.4-6.9,14.7-21.5,24-37.6,23.9ZM219,607.3c-21.3,0-38.5,17.2-38.6,38.4,0,21.3,17.2,38.5,38.4,38.6,15,0,28.6-8.7,35-22.2h0c9-19.2.6-42.2-18.6-51.1-5-2.4-10.6-3.6-16.1-3.6Z"/>
    <rect class="st0" x="217.4" y="605.7" width="3" height="80" transform="translate(-458.8 571.2) rotate(-65)"/>
    <path class="st0" d="M199.7,683.5c-1,0-1.9,0-2.9-.1v-3.1c1.1,0,1.9.1,2.8.1,16.6,0,31-9.5,38.1-25.2,7.6-16.2,4.6-35.5-7.6-48.6l2.2-2.2c13,14.1,16.2,34.6,8.2,52.1-7.6,16.8-23,27.1-40.8,27.1Z"/>
    <path class="st0" d="M202.8,683.3l-1.4-2.6c25.2-13.9,38.6-42.6,33.1-70.8l2.9-.6c5.8,29.6-8.2,59.4-34.5,74.1h0Z"/>
    <path class="st0" d="M201,682.9c-16.8-17.9-16-46,1.8-62.9,8.9-8.4,20.9-12.7,33.1-12v3c-23-1.3-42.7,16-44,39-.7,11.4,3.4,22.6,11.3,31l-2.2,1.9Z"/>
    <path class="st0" d="M200.6,682.2c-5.8-29.6,8.2-59.4,34.5-74.1l1.4,2.6c-25.2,13.9-38.6,42.6-33.1,70.8l-2.9.6Z"/>
    <rect class="st0" x="179" y="644.1" width="80" height="3" transform="translate(-458.7 571.1) rotate(-65)"/>
    <path class="st0" d="M257.5,637.5c-21.4-2.5-41.4-11.9-57-26.6l2-2.2c15.3,14.3,34.6,23.3,55.3,25.9l-.4,2.9Z"/>
    <path class="st0" d="M235.4,682.7c-15.3-14.3-34.6-23.3-55.3-25.9l.4-3c21.4,2.5,41.4,11.9,57,26.6l-2,2.3Z"/>
    <path class="st0" d="M218.8,695.1c-7.2,0-14.3-1.6-20.8-4.6h0c-.7-.4-1.1-1.2-.7-1.9h.1c0-.1,1.8-4,1.8-4l2.6,1.2-1.2,2.6c23.6,10.1,50.9-.7,61-24.3,9.7-22.6.1-48.8-21.8-59.8l-1.2,2.6-2.6-1.2,1.8-3.8q0-.1.1-.2c.4-.7,1.2-1.1,1.9-.7h0c24.8,11.5,35.3,40.9,23.8,65.6-8.1,17.2-25.5,28.4-44.8,28.4h0Z"/>
    <path class="st0" d="M253.5,715.4h-61.2c-.8,0-1.4-.7-1.4-1.4,0-3.4,6.1-5.2,20.9-8.2,3.4-.7,5.7-3.6,5.7-7s.7-1.4,1.4-1.4h7.9c.8,0,1.4.6,1.4,1.4h0c0,3.4,2.4,6.3,5.8,7,14.8,3,20.9,4.8,20.9,8.2,0,.8-.7,1.4-1.4,1.4ZM197.1,712.5h51.6c-.8-.2-1.9-.6-3.2-1-3.7-1.1-8.5-2-12-2.8-4.2-.8-7.3-4.2-7.9-8.4h-5.2c-.6,4.2-3.8,7.6-7.9,8.4-3.5.7-8.2,1.7-12,2.8-1.4.2-2.4.6-3.2,1Z"/>
    <rect class="st0" x="221.4" y="693.4" width="3" height="5.4"/>
  </g>
  <g>
    <path class="st0" d="M128.2,374H3.6c-.8,0-1.4-.7-1.4-1.4v-80.7c0-.8.7-1.4,1.4-1.4h124.7c.8,0,1.4.6,1.4,1.4h0v80.7c0,.8-.6,1.4-1.4,1.4h0ZM5,370.9h121.7v-77.7H5v77.7Z"/>
    <path class="st0" d="M122.2,364H9.6c-.8,0-1.4-.7-1.4-1.4v-64.7c0-.8.7-1.4,1.4-1.4h112.8c.8,0,1.4.7,1.4,1.4v64.7c0,.7-.6,1.4-1.6,1.4.1,0,0,0,0,0ZM11,361h109.8v-61.8H11v61.8Z"/>
    <path class="st0" d="M128.2,374H3.6c-.8,0-1.4-.7-1.4-1.4v-10c0-.8.7-1.4,1.4-1.4h124.7c.8,0,1.4.6,1.4,1.4h0v10c0,.8-.6,1.4-1.4,1.4h0ZM5,370.9h121.7v-7.1H5v7.1Z"/>
    <path class="st0" d="M80.6,389.2h-29.5c-.8,0-1.4-.7-1.4-1.4v-9.6h3v8.2h26.5v-8.2h3v9.6c-.1.7-.7,1.4-1.6,1.4Z"/>
    <path class="st0" d="M90.8,389.2h-49.9c-.8,0-1.4-.7-1.4-1.4s.7-1.4,1.4-1.4h49.9c.8,0,1.4.7,1.4,1.4s-.7,1.4-1.4,1.4Z"/>
    <path class="st0" d="M70.8,369h-9.7c-.8,0-1.4-.7-1.4-1.4s.7-1.4,1.4-1.4h9.7c.8,0,1.4.7,1.4,1.4,0,.7-.6,1.4-1.4,1.4Z"/>
    <path class="st0" d="M16.9,317.4c-.8,0-1.4-.6-1.4-1.4s.1-.8.5-1.1l10.5-10.5c.6-.6,1.6-.6,2.2,0s.6,1.6,0,2.2h0l-10.5,10.5c-.5.2-.8.4-1.2.4Z"/>
    <path class="st0" d="M16.9,331c-.8,0-1.4-.6-1.4-1.4s.1-.8.5-1.1l23.9-23.9c.6-.6,1.6-.6,2.2,0s.6,1.6,0,2.2l-24,23.9c-.4.2-.7.4-1.1.4Z"/>
  </g>
  <g>
    <rect class="st0" x="65.5" y="570.2" width="11.2" height="3" transform="translate(-459.5 347.3) rotate(-60)"/>
    <rect class="st0" x="69.7" y="584.1" width="3" height="11.2" transform="translate(-285.3 114.6) rotate(-30)"/>
    <rect class="st0" x="81.2" y="597.3" width="11.2" height="3"/>
    <rect class="st0" x="97" y="588.2" width="11.2" height="3" transform="translate(-459.5 384) rotate(-60)"/>
    <rect class="st0" x="101.1" y="566" width="3" height="11.2" transform="translate(-272.2 128) rotate(-30)"/>
    <rect class="st0" x="81.2" y="561" width="11.2" height="3"/>
    <path class="st0" d="M65.8,587.1c-3.5,0-6.4-2.9-6.4-6.4s2.9-6.4,6.4-6.4,6.4,2.9,6.4,6.4-2.8,6.4-6.4,6.4h0ZM65.8,577.2c-1.9,0-3.5,1.6-3.5,3.4s1.6,3.5,3.4,3.5,3.5-1.6,3.5-3.4h0c.1-1.9-1.4-3.5-3.4-3.5h0Z"/>
    <path class="st0" d="M76.4,605.2c-3.5,0-6.4-2.9-6.4-6.4s2.9-6.4,6.4-6.4,6.4,2.9,6.4,6.4h0c0,3.5-2.9,6.4-6.4,6.4ZM76.4,595.5c-1.9,0-3.4,1.6-3.4,3.4s1.6,3.4,3.4,3.4,3.4-1.6,3.4-3.4-1.6-3.5-3.4-3.4q0-.1,0,0h0Z"/>
    <path class="st0" d="M97.3,605.2c-3.5,0-6.4-2.9-6.4-6.4s2.9-6.4,6.4-6.4,6.4,2.9,6.4,6.4h0c0,3.5-2.9,6.4-6.4,6.4ZM97.3,595.5c-1.9,0-3.4,1.6-3.4,3.4s1.6,3.4,3.4,3.4,3.4-1.6,3.4-3.4c0-1.9-1.6-3.5-3.4-3.4q0-.1,0,0h0Z"/>
    <rect class="st0" x="112.7" y="579.1" width="11.2" height="3"/>
    <rect class="st0" x="128.5" y="570.1" width="11.2" height="3" transform="translate(-427.9 401.8) rotate(-60)"/>
    <rect class="st0" x="132.6" y="547.8" width="3" height="11.2" transform="translate(-258.8 141.2) rotate(-30)"/>
    <rect class="st0" x="112.7" y="542.8" width="11.2" height="3"/>
    <path class="st0" d="M128.8,550.8c-3.5,0-6.4-2.9-6.4-6.4s2.9-6.4,6.4-6.4,6.4,2.9,6.4,6.4h0c0,3.5-2.9,6.4-6.4,6.4ZM128.8,540.9c-1.9,0-3.4,1.6-3.4,3.4s1.6,3.4,3.4,3.4,3.4-1.6,3.4-3.4-1.6-3.4-3.4-3.4h0Z"/>
    <path class="st0" d="M139.3,568.9c-3.5,0-6.4-2.9-6.4-6.4s2.9-6.4,6.4-6.4,6.4,2.9,6.4,6.4-2.9,6.4-6.4,6.4h0ZM139.3,559.1c-1.9,0-3.4,1.6-3.4,3.4s1.6,3.4,3.4,3.4,3.4-1.6,3.4-3.4c0-1.8-1.6-3.4-3.4-3.4h0Z"/>
    <path class="st0" d="M107.8,587.1c-3.5,0-6.4-2.9-6.4-6.4s2.9-6.4,6.4-6.4,6.4,2.9,6.4,6.4-2.8,6.4-6.4,6.4h0ZM107.8,577.2c-1.9,0-3.5,1.6-3.5,3.4s1.6,3.5,3.4,3.5,3.5-1.6,3.5-3.4h0c.1-1.9-1.4-3.5-3.4-3.5h0Z"/>
    <path class="st0" d="M128.8,587.1c-3.5,0-6.4-2.9-6.4-6.4s2.9-6.4,6.4-6.4,6.4,2.9,6.4,6.4-2.9,6.4-6.4,6.4h0ZM128.8,577.2c-1.9,0-3.5,1.6-3.5,3.4s1.6,3.5,3.4,3.5,3.5-1.6,3.5-3.4h0c0-1.9-1.6-3.5-3.4-3.5h0Z"/>
    <rect class="st0" x="65.5" y="533.8" width="11.2" height="3" transform="translate(-428 329.2) rotate(-60)"/>
    <rect class="st0" x="69.6" y="547.9" width="3" height="11.2" transform="translate(-267.2 109.7) rotate(-30)"/>
    <rect class="st0" x="97" y="551.9" width="11.2" height="3" transform="translate(-428 365.7) rotate(-60)"/>
    <rect class="st0" x="101.1" y="529.6" width="3" height="11.2" transform="translate(-253.9 123) rotate(-30)"/>
    <rect class="st0" x="81.2" y="524.7" width="11.2" height="3"/>
    <path class="st0" d="M76.4,532.6c-3.5,0-6.4-2.9-6.4-6.4s2.9-6.4,6.4-6.4,6.4,2.9,6.4,6.4h0c0,3.5-2.9,6.4-6.4,6.4ZM76.4,522.8c-1.9,0-3.4,1.6-3.4,3.4s1.6,3.4,3.4,3.4,3.4-1.6,3.4-3.4h0c0-1.8-1.6-3.4-3.4-3.4Z"/>
    <path class="st0" d="M97.3,532.6c-3.5,0-6.4-2.9-6.4-6.4s2.9-6.4,6.4-6.4,6.4,2.9,6.4,6.4h0c0,3.5-2.9,6.4-6.4,6.4ZM97.3,522.8c-1.9,0-3.4,1.6-3.4,3.4s1.6,3.4,3.4,3.4,3.4-1.6,3.4-3.4h0c0-1.8-1.6-3.4-3.4-3.4Z"/>
    <path class="st0" d="M107.8,550.8c-3.5,0-6.4-2.9-6.4-6.4s2.9-6.4,6.4-6.4,6.4,2.9,6.4,6.4h0c0,3.5-2.8,6.4-6.4,6.4h0ZM107.8,540.9c-1.9,0-3.4,1.6-3.4,3.4s1.6,3.4,3.4,3.4,3.4-1.6,3.4-3.4-1.4-3.4-3.4-3.4h0Z"/>
    <path class="st0" d="M65.8,550.8c-3.5,0-6.4-2.9-6.4-6.4s2.9-6.4,6.4-6.4,6.4,2.9,6.4,6.4h0c.1,3.5-2.8,6.4-6.4,6.4ZM65.8,540.9c-1.9,0-3.4,1.6-3.4,3.4s1.6,3.4,3.4,3.4,3.4-1.6,3.4-3.4-1.4-3.4-3.4-3.4h0Z"/>
    <path class="st0" d="M76.4,568.9c-3.5,0-6.4-2.9-6.4-6.4s2.9-6.4,6.4-6.4,6.4,2.9,6.4,6.4-2.9,6.4-6.4,6.4h0ZM76.4,559.1c-1.9,0-3.4,1.6-3.4,3.4s1.6,3.4,3.4,3.4,3.4-1.6,3.4-3.4-1.6-3.4-3.4-3.4h0Z"/>
    <path class="st0" d="M97.3,568.9c-3.5,0-6.4-2.9-6.4-6.4s2.9-6.4,6.4-6.4,6.4,2.9,6.4,6.4-2.9,6.4-6.4,6.4h0ZM97.3,559.1c-1.9,0-3.4,1.6-3.4,3.4s1.6,3.4,3.4,3.4,3.4-1.6,3.4-3.4c0-1.8-1.6-3.4-3.4-3.4h0Z"/>
    <rect class="st0" x="144.2" y="561" width="11.2" height="3"/>
    <rect class="st0" x="128.5" y="533.8" width="11.2" height="3" transform="translate(-396.5 383.6) rotate(-60)"/>
    <rect class="st0" x="65.5" y="606.5" width="11.2" height="3" transform="translate(-491 365.5) rotate(-60)"/>
    <rect class="st0" x="101.1" y="602.3" width="3" height="11.2" transform="translate(-290.3 132.9) rotate(-30)"/>
    <rect class="st0" x="132.6" y="584.2" width="3" height="11.2" transform="translate(-276.9 146.1) rotate(-30)"/>
    <rect class="st0" x="49.8" y="579.1" width="11.2" height="3"/>
    <rect class="st0" x="49.8" y="542.8" width="11.2" height="3"/>
    <rect class="st0" x="69.7" y="511.4" width="3" height="11.2" transform="translate(-249 104.9) rotate(-30)"/>
    <rect class="st0" x="97" y="515.6" width="11.2" height="3" transform="translate(-396.6 347.7) rotate(-60)"/>
  </g>
  <g>
    <path class="st0" d="M297.6,139.1h-.4l-9.7-2.6c-.4-.1-.7-.4-1-.7s-.2-.7-.1-1.2l5.2-19.2c.2-.8,1-1.3,1.8-1.1h0l9.7,2.6c.8.2,1.2,1.1,1.1,1.8l-5.2,19.2c-.1.7-.7,1.2-1.4,1.2ZM289.8,134l6.9,1.8,4.3-16.4-6.9-1.8-4.3,16.4Z"/>
    <path class="st0" d="M385.8,158h-.4l-23.1-5.8c-.8-.2-1.3-1.1-1.1-1.8h0l3-11.3c.2-.8,1.1-1.3,1.8-1.1h0l22.8,6.6c.7.2,1.2,1.1,1,1.8l-2.8,10.5c-.1.6-.7,1.1-1.3,1.1ZM364.4,149.7l20.2,5,2-7.6-20.1-5.8-2.2,8.3Z"/>
    <path class="st0" d="M391.1,162.9c-.4,0-.7-.1-1-.4l-5.3-4.9c-.4-.4-.6-1-.4-1.4l2.8-10.5c.1-.5.6-1,1.1-1.1l7.1-1.6c.8-.2,1.6.4,1.8,1.1v.7l-4.6,17c-.1.5-.5.8-1.1,1.1-.2-.1-.4-.1-.5,0ZM387.5,156l2.8,2.6,3.2-12.1-3.7.8-2.3,8.7Z"/>
    <path class="st0" d="M337,162.9c-.7,0-1.4-.1-2.2-.2-4.4-1.2-7.1-5.8-5.9-10.1s5.8-7.1,10.1-5.9c4.4,1.2,7.1,5.8,5.9,10.1h0c-.6,2.2-1.9,4-3.8,5-1.2.6-2.6,1.1-4.1,1.1ZM337,149.2c-2.9,0-5.3,2.4-5.3,5.3s2.4,5.3,5.3,5.3,4.4-1.6,5.2-4h0c.7-2.9-1-5.8-3.7-6.5-.5,0-1-.1-1.4-.1h0Z"/>
    <path class="st0" d="M335,157.2c-.5,0-1.1-.2-1.3-.7-1-1.8-.2-4.1,1.6-5,1.7-.8,3.8-.4,4.9,1.3.4.7.1,1.7-.6,2-.7.4-1.7.1-2-.6-.2-.4-.7-.5-1.1-.2-.4.2-.5.7-.2,1.1h0c.4.7.1,1.7-.6,2-.1.1-.4.1-.6.1h0Z"/>
    <path class="st0" d="M366.4,136.5l-63.7-17.7c-.4-.1-.8-.1-1.2.1-.4.2-.6.5-.7,1l-4.2,15.5c-.1.4,0,.8.1,1.1.2.4.5.6,1,.7l29,7.5-1.3,5c-.2.8.2,1.6,1.1,1.8h0l4.2,1.2.7-2.9-2.8-.7,1.3-5c.2-.8-.2-1.6-1.1-1.8h0l-28.7-7.6,3.4-12.6,60.8,17-3,11.3-10.9-2.8c-.8-.2-1.6.2-1.8,1.1l-1.4,5.3-2.9-.7-.7,2.9,4.3,1.2h.4c.2,0,.5-.1.7-.2.4-.2.6-.5.7-1l1.4-5.3,10.9,2.8c.8.2,1.6-.2,1.8-1.1l3.8-14.2c0-.7-.5-1.6-1.2-1.8Z"/>
    <path class="st0" d="M350.4,141.4h-.4l-43.9-12.3c-.8-.2-1.2-1.1-1.1-1.8.2-.8,1.1-1.2,1.8-1.1l43.9,12.3c.8.2,1.3,1,1.1,1.8-.1.7-.7,1.1-1.4,1.1h0Z"/>
    <path class="st0" d="M358.6,143.7h-.4l-1.9-.6c-.8-.2-1.2-1.1-1.1-1.8.2-.8,1.1-1.2,1.8-1.1l1.9.6c.8.2,1.3,1,1.1,1.8-.1.6-.7,1.1-1.4,1.1h0Z"/>
    <path class="st0" d="M368.7,220.2l-25.1-53.9v-7.2h-3v7.6c0,.2,0,.5.1.6l25.2,54.1c.1.4.1.6,0,1s-.4.6-.6.7c-.6.4-1.3.1-1.6-.5h0c0-.1-22.7-48.7-22.7-48.7l-2.6,1.2,22.7,48.6c.7,1.4,2.2,2.4,3.8,2.4s1.2-.1,1.8-.4c1.9-1,2.9-3.5,1.9-5.5q-.1-.1,0,0h0Z"/>
    <path class="st0" d="M333,173.9l-22.7,48.6c-.2.6-1,.8-1.6.6h-.1c-.2-.1-.5-.4-.6-.7s-.1-.6,0-1l25.2-54.1c.1-.2.1-.4.1-.6v-7.6h-3v7.2l-25,53.9c-.5,1-.5,2.2-.1,3.2.4,1.1,1.2,1.9,2.2,2.4.6.2,1.2.4,1.8.4,1.7,0,3.1-1,3.8-2.4l22.7-48.6-2.8-1.3Z"/>
    <path class="st0" d="M337,232.3c-2.3,0-4.2-1.9-4.2-4.2h0v-57h3v57c0,.7.6,1.2,1.2,1.2s1.2-.6,1.2-1.2v-57h3v57c0,2.4-1.9,4.2-4.2,4.2Z"/>
  </g>
  <g>
    <rect class="st0" x="401.9" y="354.7" width="9.3" height="3"/>
    <rect class="st0" x="414.5" y="354.7" width="4.2" height="3"/>
    <rect class="st0" x="389.3" y="408.8" width="42.2" height="3"/>
    <path class="st0" d="M439,449.8h-57.4c-5.4,0-9.9-4.4-9.9-9.9s.5-3.4,1.3-4.9l25.7-44.4c1-1.7,1.4-3.6,1.4-5.5v-27.7c-2.4-.7-3.8-3.2-3.2-5.7.6-1.9,2.4-3.4,4.4-3.4h17.6c2.5,0,4.6,2,4.6,4.7s-1.4,3.8-3.4,4.4v27.7c0,1.9.5,3.8,1.4,5.5l25.7,44.4h0c2.8,4.7,1.1,10.7-3.5,13.3-1.6.7-3.2,1.2-4.9,1.3h0ZM401.7,351.6c-.8,0-1.6.7-1.6,1.6s.7,1.6,1.6,1.6h.2c.8,0,1.4.7,1.4,1.4v29c0,2.4-.6,4.9-1.9,7l-25.6,44.5c-1.9,3.2-.7,7.5,2.5,9.4,1.1.6,2.2,1,3.4,1h57.4c3.7,0,6.9-3.1,6.9-6.9s-.4-2.4-1-3.4l-25.7-44.5c-1.2-2.2-1.9-4.6-1.9-7v-29c0-.8.7-1.4,1.4-1.4h.2c.8,0,1.6-.7,1.6-1.6s-.7-1.6-1.6-1.6h-17.3Z"/>
    <rect class="st0" x="411.9" y="440.4" width="3.4" height="3"/>
    <path class="st0" d="M439,443.5h-20.2v-3h20.2c.1,0,.4-.1.4-.2.1-.1.1-.4,0-.5l-10.8-18.6,2.6-1.4,10.8,18.6c1,1.7.4,3.7-1.3,4.7-.5.2-1.1.5-1.7.5h0Z"/>
    <path class="st0" d="M400.3,405.6c-.2,0-.5-.1-.7-.2-.7-.4-1-1.3-.6-2h0l5.4-9.4c1.6-2.6,2.4-5.7,2.4-8.7v-11.7c-.1-.8.5-1.6,1.3-1.7.8-.1,1.6.5,1.7,1.3v11.9c0,3.6-1,7.1-2.8,10.2l-5.4,9.4c-.4.5-.8.8-1.3.8Z"/>
  </g>
  <g>
    <path class="st0" d="M223.8,22.4c-.8,0-1.4-.7-1.4-1.4V7.4c0-.8.7-1.4,1.4-1.4s1.4.7,1.4,1.4h0v13.3c.1.8-.6,1.6-1.4,1.6Z"/>
    <path class="st0" d="M208.7,26.4c-.5,0-1.1-.2-1.3-.7l-6.6-11.5c-.4-.7-.1-1.7.6-2,.7-.4,1.6-.1,2,.5h0l6.7,11.5c.4.7.1,1.7-.6,2-.4.1-.6.2-.8.2Z"/>
    <path class="st0" d="M197.5,37.6c-.2,0-.5-.1-.7-.2l-11.5-6.7c-.7-.4-1-1.3-.6-2s1.3-1,2-.6h0l11.5,6.7c.7.4,1,1.3.6,2-.2.5-.8.7-1.3.8h0Z"/>
    <path class="st0" d="M193.4,52.8h-13.3c-.8,0-1.4-.7-1.4-1.4s.7-1.4,1.4-1.4h13.3c.8,0,1.4.7,1.4,1.4s-.6,1.4-1.4,1.4Z"/>
    <path class="st0" d="M185.8,74.8c-.8,0-1.4-.7-1.4-1.4s.2-1.1.7-1.3l11.5-6.7c.7-.4,1.7-.1,2,.6s.1,1.7-.6,2h0l-11.5,6.7c-.1,0-.4.1-.7.1Z"/>
    <path class="st0" d="M261.8,74.8c-.2,0-.5-.1-.7-.2l-11.5-6.7c-.7-.4-1-1.3-.6-2,.4-.7,1.3-1,2-.6h0l11.5,6.7c.7.4,1,1.3.5,2-.1.5-.6.8-1.2.8Z"/>
    <path class="st0" d="M267.7,52.8h-13.3c-.8,0-1.4-.7-1.4-1.4s.7-1.4,1.4-1.4h13.3c.8,0,1.4.7,1.4,1.4.1.8-.6,1.4-1.4,1.4h0Z"/>
    <path class="st0" d="M250.3,37.6c-.8,0-1.4-.6-1.6-1.4,0-.6.2-1.1.7-1.3l11.5-6.7c.7-.4,1.7-.1,2,.6s.1,1.7-.6,2h0l-11.5,6.7c-.1,0-.4.1-.6.1Z"/>
    <path class="st0" d="M239.2,26.4c-.2,0-.5-.1-.7-.2-.7-.4-1-1.3-.6-2h0l6.7-11.5c.4-.7,1.3-1,2-.6.7.4,1,1.3.6,2l-6.7,11.5c-.5.5-.8.8-1.3.8Z"/>
    <path class="st0" d="M232.8,88h-18c-2.5,0-4.6-2-4.6-4.6v-5c0-3.1-1.3-6.1-3.6-8.2-10.6-9.3-11.5-25.4-2.3-35.8s25.4-11.5,35.8-2.3c.5.4.8.8,1.3,1.2,4.9,4.8,7.7,11.3,7.7,18.2s-3,13.9-8.2,18.8c-2.3,2.2-3.6,5-3.6,8.2v5c-.1,2.4-2,4.4-4.6,4.6ZM223.8,28.8h-.6c-12.4.2-22.2,10.5-22,22.8.1,6.1,2.8,12,7.3,16.1,2.9,2.6,4.6,6.5,4.6,10.3v5c0,.8.7,1.6,1.7,1.6h18c.8,0,1.6-.7,1.6-1.6v-5c0-4,1.7-7.7,4.6-10.3,4.6-4.2,7.2-10.2,7.2-16.5.1-12.4-9.9-22.4-22.4-22.5.1.1,0,.1,0,0h0Z"/>
    <path class="st0" d="M208.1,45.2c-.2,0-.5,0-.6-.1-.7-.4-1.1-1.2-.7-2,3.1-6.5,9.5-10.6,16.7-10.8.8,0,1.4.7,1.4,1.6s-.6,1.3-1.3,1.4c-6,.1-11.4,3.7-14.1,9.1-.4.5-.8.8-1.4.8Z"/>
    <path class="st0" d="M206.3,52.9c-.8,0-1.4-.7-1.4-1.4s0-1.4.1-2.3.8-1.4,1.7-1.3,1.4.8,1.3,1.7c-.1.6-.1,1.2-.1,1.9s-.7,1.4-1.6,1.4h0Z"/>
    <path class="st0" d="M233.7,92.2h-19.6c-.8,0-1.4-.7-1.4-1.4s.7-1.4,1.4-1.4h19.6c.8,0,1.4.7,1.4,1.4s-.7,1.4-1.4,1.4Z"/>
    <path class="st0" d="M233.7,96.4h-19.6c-.8-.1-1.4-.8-1.3-1.7.1-.7.6-1.3,1.3-1.3h19.6c.8.1,1.4.8,1.3,1.7-.1.6-.6,1.2-1.3,1.3Z"/>
    <path class="st0" d="M233.7,100.6h-19.6c-.8,0-1.4-.7-1.4-1.4s.7-1.4,1.4-1.4h19.6c.8,0,1.4.7,1.4,1.4s-.7,1.4-1.4,1.4Z"/>
    <path class="st0" d="M225.3,106.3h-2.9c-2.5,0-4.7-2-4.7-4.7h3c0,1,.7,1.7,1.7,1.7h2.9c1,0,1.7-.7,1.7-1.7h3c0,2.5-2,4.7-4.7,4.7h0Z"/>
    <path class="st0" d="M226,67.4h-3.2v-2.6c0-1,.1-1.9.5-2.9.5-1,1.2-1.8,1.9-2.5l1.6-1.6c.6-.5,1.1-1.1,1.4-1.8.2-.5.4-1.1.4-1.6,0-1-.4-1.8-1.1-2.4-.8-.7-1.9-1-3-1s-1.9.2-2.9.6c-1.1.5-2.2,1.1-3.2,1.8v-3.2c1-.6,2.2-1.1,3.2-1.4s2.3-.5,3.4-.5c1.8-.1,3.6.5,5,1.7,1.3,1.1,1.9,2.8,1.9,4.4s-.2,1.7-.6,2.4c-.6,1-1.3,1.9-2.2,2.6l-1.6,1.4c-.6.5-1.1,1.2-1.6,1.8-.2.6-.4,1.2-.4,1.8l.4,2.9h0ZM222.5,69.8h3.5v4.4h-3.5v-4.4Z"/>
  </g>
  <g>
    <path class="st0" d="M134.7,223.5h-38.5v3h38.4c.8,0,1.4-.7,1.4-1.4.1-.8-.6-1.6-1.3-1.6Z"/>
    <path class="st0" d="M82.3,226.5h-6c-5.8,0-10.5-4.7-10.5-10.5v-66.6c0-5.8,4.7-10.5,10.5-10.5h58.3c.8,0,1.4.7,1.4,1.4v66.6c0,.8-.7,1.4-1.4,1.4h-58.2c-4.1-.1-7.7,3-7.8,7.2-.1,4.1,3,7.7,7.2,7.8h6.6v3ZM76.3,142c-4.1,0-7.5,3.4-7.5,7.5v59.3c1.9-2,4.7-3.1,7.5-3.1h56.9v-63.6h-56.9Z"/>
    <path class="st0" d="M129.8,201.4h-3v-3.1h3v3.1ZM129.8,194.4h-3v-16.2h3v16.2Z"/>
    <rect class="st0" x="76.1" y="214.6" width="26.6" height="3"/>
    <path class="st0" d="M96.3,232.5c-.4,0-.6-.1-1-.4l-6-4.7-6,4.7c-.6.5-1.6.4-2-.2-.2-.2-.4-.6-.4-1v-15c0-.8.7-1.4,1.4-1.4h13.9c.8,0,1.4.7,1.4,1.4v15c0,.6-.4,1.1-.8,1.3-.1.2-.4.2-.6.2ZM83.9,217.5v10.5l4.6-3.5c.5-.5,1.3-.5,1.8,0l4.6,3.5v-10.5h-10.9Z"/>
    <rect class="st0" x="130.5" y="207" width="3" height="18"/>
    <rect class="st0" x="74.9" y="140.4" width="3" height="52.7"/>
    <rect class="st0" x="74.9" y="199.8" width="3" height="7.2"/>
    <path class="st0" d="M82.7,173.2c-.8,0-1.4-.7-1.4-1.4v-25c0-.8.7-1.4,1.4-1.4h16.5c.8.1,1.4.8,1.3,1.7-.1.7-.6,1.3-1.3,1.3h-14.9v23.4c0,.8-.7,1.4-1.6,1.4Z"/>
  </g>
  <g>
    <rect class="st0" x="181.9" y="437.5" width="87.2" height="3"/>
    <path class="st0" d="M247.2,433.9h-29.1c-.8,0-1.4-.7-1.4-1.4v-19.1c0-5.7,4.6-10.3,10.3-10.3s7.3,2,9.1,5.4l12.5,23.3c.2.5.2,1,0,1.4-.5.5-1,.7-1.4.7ZM219.6,430.9h25.1l-11.3-21c-1.3-2.4-3.7-3.8-6.5-3.8-4.1,0-7.3,3.2-7.3,7.3v17.6Z"/>
    <path class="st0" d="M226.8,418.7c-2.9,0-5.3-2.4-5.3-5.3s2.4-5.3,5.3-5.3,5.3,2.4,5.3,5.3-2.3,5.3-5.3,5.3ZM226.8,411.1c-1.2,0-2.3,1-2.3,2.3s1,2.3,2.3,2.3,2.3-1,2.3-2.3-1-2.3-2.3-2.3Z"/>
    <path class="st0" d="M238.9,417.2l-1.3-2.6c10.7-5.2,17.6-16.2,17.6-28s-2.3-13.6-6.6-19.1l2.4-1.8c4.7,6,7.2,13.3,7.2,20.9.1,12.9-7.5,25-19.2,30.7Z"/>
    <path class="st0" d="M234.2,408.9l-1.2-2.8c7.7-3.5,12.7-11.2,12.7-19.6s-1.1-7.6-3-10.9l2.5-1.6c2.2,3.7,3.4,8.1,3.4,12.4,0,9.7-5.7,18.5-14.4,22.5Z"/>
    <path class="st0" d="M218.1,419.6h-25.5c-.8,0-1.4-.7-1.4-1.4v-5.3c0-.8.7-1.4,1.4-1.4h25.5c.8,0,1.4.7,1.4,1.4v5.3c.1.7-.6,1.4-1.4,1.4ZM194,416.6h22.5v-2.3h-22.5v2.3Z"/>
    <path class="st0" d="M211.3,414.3h-12.1c-.8,0-1.4-.7-1.4-1.4v-4.6c0-.8.7-1.4,1.4-1.4h12.1c.8,0,1.4.7,1.4,1.4v4.4c.1.8-.6,1.6-1.4,1.6ZM200.7,411.3h9.1v-1.4h-9.1v1.4Z"/>
    <rect class="st0" x="236.6" y="424.7" width="7.2" height="3"/>
    <rect class="st0" x="218.1" y="424.7" width="14.1" height="3"/>
    <g>
      <path class="st0" d="M223.5,386.7c-.4,0-.6-.1-.8-.2l-12.7-8.9c-.4-.2-.6-.6-.6-1-.1-.4,0-.8.2-1.1l25.4-36.2c.5-.7,1.4-.8,2-.4l12.7,8.9c.7.5.8,1.4.4,2l-7,9.9-2.4-1.7,6.1-8.7-10.2-7.2-23.7,33.8,10.2,7.2,11.8-16.8,2.4,1.7-12.6,18.2c-.2.4-.6.6-1,.6,0-.1-.1-.1-.2-.1Z"/>
      <path class="st0" d="M219.3,376.3c-.2,0-.6-.1-.8-.2-.7-.5-.8-1.4-.4-2l13.9-19.8c.5-.7,1.4-.8,2-.4.7.5.8,1.4.4,2l-13.9,19.8c-.4.4-.7.6-1.2.6ZM236.6,351.6c-.2,0-.6-.1-.8-.2-.7-.5-.8-1.4-.4-2l1.1-1.4c.5-.7,1.4-.8,2-.4.7.5.8,1.4.4,2l-1.1,1.4c-.2.4-.7.6-1.2.6Z"/>
      <path class="st0" d="M215.3,392.7c-.2,0-.6-.1-.8-.2l-7.3-5.2c-.4-.2-.6-.6-.6-1-.1-.4,0-.8.2-1.1l5.5-7.9c.2-.4.6-.6,1-.6.4-.1.8,0,1.1.2l7.3,5.2c.7.5.8,1.4.4,2l-5.5,7.9c-.4.4-.7.6-1.2.6ZM210,385.7l4.8,3.4,3.8-5.4-4.8-3.4-3.8,5.4Z"/>
      <path class="st0" d="M246.1,348.7c-.4,0-.6-.1-.8-.2l-7.3-5.2c-.7-.5-.8-1.4-.4-2l9.1-13c.2-.4.6-.6,1-.6.4-.1.8,0,1.1.2l7.3,5.2c.7.5.8,1.4.4,2l-9.1,13c-.2.4-.6.6-1,.6,0-.1-.1,0-.2,0ZM240.9,341.7l4.8,3.4,7.3-10.6-4.8-3.4-7.3,10.6Z"/>
      <path class="st0" d="M258,337.5c-.2,0-.6-.1-.8-.2l-12.7-8.9c-.7-.5-.8-1.4-.4-2,.5-.7,1.4-.8,2-.4l12.7,8.9c.7.5.8,1.4.4,2-.4.4-.7.6-1.2.6Z"/>
      <path class="st0" d="M239.8,370.2c-3.6,0-6.6-3-6.6-6.6s3-6.6,6.6-6.6,6.6,3,6.6,6.6-3,6.6-6.6,6.6ZM239.8,360c-2,0-3.6,1.6-3.6,3.6s1.6,3.6,3.6,3.6,3.6-1.6,3.6-3.6-1.6-3.6-3.6-3.6Z"/>
      <path class="st0" d="M240.9,380.7c-.4,0-.6-.1-.8-.2l-8.8-6.1c-.7-.5-.8-1.4-.4-2l4.1-5.9,2.4,1.7-3.2,4.7,6.4,4.4,12.3-17.4-6.4-4.4-3.2,4.6-2.4-1.7,4.1-5.9c.2-.4.6-.6,1-.6.4-.1.8,0,1.1.2l8.8,6.1c.4.2.6.6.6,1,.1.4,0,.8-.2,1.1l-13.9,19.8c-.2.4-.6.6-1,.6-.1.1-.2.1-.2.1Z"/>
    </g>
    <path class="st0" d="M258.3,440.5h-65.8c-.8,0-1.4-.7-1.4-1.4v-6.5c0-.8.7-1.4,1.4-1.4h65.8c.8,0,1.4.7,1.4,1.4v6.5c0,.7-.6,1.4-1.4,1.4ZM194,437.5h62.8v-3.6h-62.8v3.6Z"/>
  </g>
  <g>
    <path class="st0" d="M79.7,462.8c-.8,0-1.6-.7-1.6-1.6h0v-28.4c-.1-.8.6-1.6,1.4-1.7s1.6.6,1.7,1.4v28.7c0,.8-.7,1.4-1.6,1.4Z"/>
    <path class="st0" d="M93.9,448.6h-28.5c-.8-.1-1.4-.8-1.4-1.7.1-.7.6-1.3,1.4-1.4h28.5c.8-.1,1.6.6,1.7,1.4.1.8-.6,1.6-1.4,1.7h-.2Z"/>
  </g>
</svg>